<svg xmlns="http://www.w3.org/2000/svg" version="1.1" xmlns:xlink="http://www.w3.org/1999/xlink" xmlns:svgjs="http://svgjs.dev/svgjs" width="1000" height="464" viewBox="0 0 1000 464"><g transform="matrix(1,0,0,1,-0.6060458383338982,0.5678566820588458)"><svg viewBox="0 0 396 184" data-background-color="#ffffff" preserveAspectRatio="xMidYMid meet" height="464" width="1000" xmlns="http://www.w3.org/2000/svg" xmlns:xlink="http://www.w3.org/1999/xlink"><g id="tight-bounds" transform="matrix(1,0,0,1,0.2399941519802269,-0.22518454633366503)"><svg viewBox="0 0 395.52 184.45036909266733" height="184.45036909266733" width="395.52"><g><svg viewBox="0 0 395.52 184.45036909266733" height="184.45036909266733" width="395.52"><g transform="matrix(1,0,0,1,0,110.94448993912505)"><svg viewBox="0 0 395.52 73.50587915354228" height="73.50587915354228" width="395.52"><g id="textblocktransform"><svg viewBox="0 0 395.52 73.50587915354228" height="73.50587915354228" width="395.52" id="textblock"><g><svg viewBox="0 0 395.52 39.64555884092253" height="39.64555884092253" width="395.52"><g transform="matrix(1,0,0,1,0,0)"><svg width="395.52" viewBox="3 -32.7400016784668 330.239990234375 33.11000061035156" height="39.64555884092253" data-palette-color="#ff0000"><path d="M4.74 0Q3.83 0 3.42-0.42 3-0.83 3-1.73L3-1.73 3-28.66Q3-29.57 3.42-29.97 3.83-30.37 4.74-30.37L4.74-30.37 14.45-30.37Q18.92-30.37 22.03-28.63 25.15-26.88 26.75-23.49 28.34-20.09 28.34-15.21L28.34-15.21Q28.34-10.3 26.75-6.91 25.15-3.52 22.03-1.76 18.92 0 14.45 0L14.45 0 4.74 0ZM9.74-5.69L14.45-5.69Q17.92-5.69 19.7-8.12 21.48-10.55 21.48-15.21L21.48-15.21Q21.48-19.85 19.7-22.28 17.92-24.71 14.45-24.71L14.45-24.71 9.74-24.71 9.74-5.69ZM35.47 0.07Q32.88 0.07 32.88-1.29L32.88-1.29 32.88-15.06Q32.88-18.19 32.47-20.26L32.47-20.26Q32.35-20.92 32.35-21.19L32.35-21.19Q32.35-21.68 33.26-21.98 34.18-22.29 35.34-22.44 36.5-22.58 37.2-22.58L37.2-22.58Q37.96-22.58 38.27-22.02 38.57-21.46 38.82-20.39L38.82-20.39 38.96-19.75Q39.79-21.26 40.88-22.16 41.97-23.05 43.67-23.05L43.67-23.05Q45.09-23.05 45.63-22.33 46.16-21.61 46.16-20.7L46.16-20.7Q46.16-20.21 45.99-19.32 45.82-18.43 45.51-17.75 45.19-17.07 44.8-17.07L44.8-17.07Q44.53-17.07 43.99-17.21L43.99-17.21Q43.26-17.41 42.75-17.41L42.75-17.41Q41.55-17.41 40.66-16.74 39.77-16.06 39.3-15.23L39.3-15.23 39.3-1.29Q39.3 0.07 36.67 0.07L36.67 0.07 35.47 0.07ZM51.22-26.44Q49.85-26.44 49.23-26.78 48.6-27.12 48.6-27.83L48.6-27.83 48.6-31.32Q48.6-32.03 49.24-32.39 49.87-32.74 51.22-32.74L51.22-32.74 52.41-32.74Q53.75-32.74 54.39-32.39 55.02-32.03 55.02-31.32L55.02-31.32 55.02-27.83Q55.02-27.12 54.4-26.78 53.78-26.44 52.41-26.44L52.41-26.44 51.22-26.44ZM51.22 0.07Q48.6 0.07 48.6-1.29L48.6-1.29 48.6-21.41Q48.6-22.09 49.24-22.44 49.87-22.78 51.22-22.78L51.22-22.78 52.41-22.78Q53.75-22.78 54.39-22.44 55.02-22.09 55.02-21.41L55.02-21.41 55.02-1.29Q55.02 0.07 52.41 0.07L52.41 0.07 51.22 0.07ZM67.35 0.07Q66.33 0.07 65.7-0.12 65.08-0.32 64.91-0.83L64.91-0.83 58.02-21.04Q58-21.19 57.93-21.45 57.85-21.7 57.85-21.83L57.85-21.83Q57.85-22.31 58.49-22.55 59.12-22.78 60.49-22.78L60.49-22.78 61.91-22.78Q62.96-22.78 63.59-22.57 64.23-22.36 64.37-21.88L64.37-21.88 66.91-13.87Q67.03-13.43 67.67-10.69L67.67-10.69 68.13-8.62 68.33-8.62Q69.08-12.45 69.52-13.87L69.52-13.87 72.09-21.88Q72.23-22.36 72.86-22.57 73.48-22.78 74.53-22.78L74.53-22.78 75.6-22.78Q76.95-22.78 77.57-22.55 78.19-22.31 78.19-21.83L78.19-21.83Q78.19-21.44 78.07-21.04L78.07-21.04 71.16-0.83Q71.01-0.34 70.39-0.13 69.77 0.07 68.74 0.07L68.74 0.07 67.35 0.07ZM91.74 0.37Q86.03 0.37 83.22-2.7 80.41-5.76 80.41-11.21L80.41-11.21Q80.41-17.33 83.22-20.19 86.03-23.05 90.96-23.05L90.96-23.05Q94.23-23.05 96.32-21.56 98.4-20.07 99.37-17.55 100.33-15.04 100.33-11.87L100.33-11.87Q100.33-11.5 99.9-10.89 99.48-10.28 98.94-9.79 98.4-9.3 98.11-9.3L98.11-9.3 87.05-9.3Q87.27-6.81 88.53-5.77 89.78-4.74 92.03-4.74L92.03-4.74Q93.25-4.74 94.24-5.02 95.23-5.3 96.35-5.76L96.35-5.76Q97.04-6.08 97.28-6.08L97.28-6.08Q97.72-6.08 98.24-5.46 98.77-4.83 99.15-4.03 99.53-3.22 99.53-2.78L99.53-2.78Q99.53-1.78 98.17-1.07 96.82-0.37 94.97 0 93.13 0.37 91.74 0.37L91.74 0.37ZM87.05-13.57L94.08-13.57Q94.08-15.58 93.3-16.78 92.52-17.99 90.96-17.99L90.96-17.99Q87.73-17.99 87.05-13.57L87.05-13.57ZM106.73 0Q105.82 0 105.41-0.42 104.99-0.83 104.99-1.73L104.99-1.73 104.99-28.66Q104.99-29.57 105.41-29.97 105.82-30.37 106.73-30.37L106.73-30.37 122.62-30.37Q123.3-30.37 123.61-29.86 123.91-29.35 123.91-28.2L123.91-28.2 123.91-26.88Q123.91-25.73 123.61-25.22 123.3-24.71 122.62-24.71L122.62-24.71 111.68-24.71 111.68-18.41 121.45-18.41Q122.13-18.41 122.44-17.9 122.74-17.38 122.74-16.24L122.74-16.24 122.74-14.89Q122.74-13.75 122.44-13.23 122.13-12.72 121.45-12.72L121.45-12.72 111.68-12.72 111.68-5.69 122.64-5.69Q123.33-5.69 123.63-5.18 123.94-4.66 123.94-3.54L123.94-3.54 123.94-2.17Q123.94-1.03 123.63-0.51 123.33 0 122.64 0L122.64 0 106.73 0ZM133.94 0.37Q130.62 0.37 129.07-1.38 127.52-3.13 127.52-6.01L127.52-6.01Q127.52-8.18 128.43-9.92 129.33-11.67 132.09-12.87 134.85-14.06 139.98-14.06L139.98-14.06 139.98-15.5Q139.98-16.77 139.17-17.38 138.36-17.99 136.61-17.99L136.61-17.99Q135.14-17.99 134.09-17.69 133.04-17.38 131.82-16.87L131.82-16.87Q131.19-16.58 131.04-16.58L131.04-16.58Q130.6-16.58 130.08-17.24 129.55-17.9 129.16-18.75 128.77-19.6 128.77-20.04L128.77-20.04Q128.77-20.8 129.86-21.5 130.94-22.19 132.85-22.62 134.75-23.05 137.07-23.05L137.07-23.05Q141.95-23.05 144.17-21.11 146.4-19.17 146.4-15.8L146.4-15.8 146.4-7.67Q146.4-5.64 146.51-4.52 146.62-3.39 146.81-2.29L146.81-2.29Q146.93-1.64 146.93-1.37L146.93-1.37Q146.93-0.88 146.02-0.56 145.1-0.24 143.93-0.1 142.76 0.05 142.05 0.05L142.05 0.05Q141.29 0.05 140.96-0.6 140.63-1.25 140.44-2.37L140.44-2.37Q140.41-2.51 140.39-2.66 140.37-2.81 140.32-2.95L140.32-2.95Q140.07-2.49 139.28-1.71 138.49-0.93 137.12-0.28 135.75 0.37 133.94 0.37L133.94 0.37ZM136.07-4.74Q137.29-4.74 138.36-5.51 139.44-6.27 139.98-7.47L139.98-7.47 139.98-9.86Q133.9-9.86 133.9-6.67L133.9-6.67Q133.9-5.81 134.47-5.27 135.04-4.74 136.07-4.74L136.07-4.74ZM157.89 0.37Q156.21 0.37 154.55 0 152.89-0.37 151.8-1.05 150.71-1.73 150.71-2.61L150.71-2.61Q150.71-3.15 151.11-3.96 151.5-4.76 152.05-5.36 152.59-5.96 153.01-5.96L153.01-5.96Q153.23-5.96 153.96-5.62L153.96-5.62Q154.82-5.22 155.6-4.98 156.38-4.74 157.38-4.74L157.38-4.74Q158.63-4.74 159.26-5.2 159.89-5.66 159.89-6.57L159.89-6.57Q159.89-7.25 159.52-7.7 159.14-8.15 158.55-8.45 157.97-8.74 156.89-9.16L156.89-9.16 156.18-9.42Q154.79-9.96 153.74-10.64 152.69-11.33 151.96-12.63 151.23-13.94 151.23-15.94L151.23-15.94Q151.23-18.16 152.19-19.76 153.16-21.36 154.94-22.2 156.72-23.05 159.14-23.05L159.14-23.05Q160.53-23.05 162.04-22.78 163.56-22.51 164.59-21.95 165.63-21.39 165.63-20.53L165.63-20.53Q165.63-20.04 165.33-19.21 165.02-18.38 164.58-17.75 164.14-17.11 163.75-17.11L163.75-17.11Q163.63-17.11 163.07-17.33L163.07-17.33Q162.31-17.65 161.62-17.83 160.92-18.02 160.02-18.02L160.02-18.02Q157.72-18.02 157.72-16.5L157.72-16.5Q157.72-15.82 158.15-15.33 158.58-14.84 159.21-14.53 159.85-14.21 160.99-13.77L160.99-13.77Q162.31-13.23 162.63-13.09L162.63-13.09Q164.34-12.23 165.38-10.83 166.41-9.42 166.41-7.08L166.41-7.08Q166.41-4.86 165.41-3.17 164.41-1.49 162.48-0.56 160.55 0.37 157.89 0.37L157.89 0.37ZM180.42 0.37Q174.71 0.37 171.9-2.7 169.1-5.76 169.1-11.21L169.1-11.21Q169.1-17.33 171.9-20.19 174.71-23.05 179.64-23.05L179.64-23.05Q182.91-23.05 185-21.56 187.09-20.07 188.05-17.55 189.02-15.04 189.02-11.87L189.02-11.87Q189.02-11.5 188.59-10.89 188.16-10.28 187.63-9.79 187.09-9.3 186.8-9.3L186.8-9.3 175.74-9.3Q175.96-6.81 177.21-5.77 178.47-4.74 180.72-4.74L180.72-4.74Q181.94-4.74 182.93-5.02 183.92-5.3 185.04-5.76L185.04-5.76Q185.72-6.08 185.97-6.08L185.97-6.08Q186.41-6.08 186.93-5.46 187.46-4.83 187.83-4.03 188.21-3.22 188.21-2.78L188.21-2.78Q188.21-1.78 186.86-1.07 185.5-0.37 183.66 0 181.82 0.37 180.42 0.37L180.42 0.37ZM175.74-13.57L182.77-13.57Q182.77-15.58 181.99-16.78 181.21-17.99 179.64-17.99L179.64-17.99Q176.42-17.99 175.74-13.57L175.74-13.57ZM196.29 0.07Q193.68 0.07 193.68-1.29L193.68-1.29 193.68-28.66Q193.68-29.57 194.09-29.97 194.51-30.37 195.41-30.37L195.41-30.37 203.88-30.37Q214.67-30.37 214.67-22.24L214.67-22.24Q214.67-19.78 213.3-17.99 211.92-16.21 209.6-15.33L209.6-15.33 209.6-15.16Q210.4-14.82 211.29-13.7 212.18-12.57 212.72-11.16L212.72-11.16 216.55-1.61Q216.75-1.03 216.75-0.78L216.75-0.78Q216.75 0.07 214.16 0.07L214.16 0.07 212.38 0.07Q210.21 0.07 209.87-0.83L209.87-0.83 206.42-9.3Q205.93-10.28 205.48-10.82 205.03-11.35 204.23-11.63 203.42-11.91 202.05-11.91L202.05-11.91 200.37-11.91 200.37-1.29Q200.37 0.07 197.76 0.07L197.76 0.07 196.29 0.07ZM200.37-17.68L204.47-17.68Q205.35-17.68 206.13-18.18 206.91-18.68 207.37-19.53 207.84-20.39 207.84-21.41L207.84-21.41Q207.84-22.92 206.85-23.82 205.86-24.71 204.18-24.71L204.18-24.71 200.37-24.71 200.37-17.68ZM230.32 0.37Q224.61 0.37 221.8-2.7 218.99-5.76 218.99-11.21L218.99-11.21Q218.99-17.33 221.8-20.19 224.61-23.05 229.54-23.05L229.54-23.05Q232.81-23.05 234.9-21.56 236.99-20.07 237.95-17.55 238.92-15.04 238.92-11.87L238.92-11.87Q238.92-11.5 238.49-10.89 238.06-10.28 237.52-9.79 236.99-9.3 236.69-9.3L236.69-9.3 225.63-9.3Q225.85-6.81 227.11-5.77 228.37-4.74 230.61-4.74L230.61-4.74Q231.84-4.74 232.82-5.02 233.81-5.3 234.94-5.76L234.94-5.76Q235.62-6.08 235.86-6.08L235.86-6.08Q236.3-6.08 236.83-5.46 237.35-4.83 237.73-4.03 238.11-3.22 238.11-2.78L238.11-2.78Q238.11-1.78 236.75-1.07 235.4-0.37 233.56 0 231.71 0.37 230.32 0.37L230.32 0.37ZM225.63-13.57L232.67-13.57Q232.67-15.58 231.88-16.78 231.1-17.99 229.54-17.99L229.54-17.99Q226.32-17.99 225.63-13.57L225.63-13.57ZM245.87 0.07Q243.28 0.07 243.28-1.29L243.28-1.29 243.28-15.06Q243.28-18.19 242.87-20.26L242.87-20.26Q242.75-20.92 242.75-21.19L242.75-21.19Q242.75-21.68 243.66-21.98 244.58-22.29 245.74-22.44 246.9-22.58 247.6-22.58L247.6-22.58Q248.36-22.58 248.67-22.02 248.97-21.46 249.22-20.39L249.22-20.39 249.36-19.75Q250.39-21.12 252.11-22.08 253.83-23.05 255.81-23.05L255.81-23.05Q259.08-23.05 260.64-21.34 262.2-19.63 262.2-16.04L262.2-16.04 262.2-1.29Q262.2 0.07 259.57 0.07L259.57 0.07 258.37 0.07Q255.78 0.07 255.78-1.29L255.78-1.29 255.78-15.06Q255.78-16.38 255.16-17.07 254.54-17.75 253.15-17.75L253.15-17.75Q251.97-17.75 251.07-16.97 250.17-16.19 249.7-15.23L249.7-15.23 249.7-1.29Q249.7 0.07 247.07 0.07L247.07 0.07 245.87 0.07ZM274.43 0.37Q271.33 0.37 269.71-1.38 268.09-3.13 268.09-6.69L268.09-6.69 268.09-17.63 267.4-17.63Q266.72-17.63 266.41-18.14 266.11-18.65 266.11-19.8L266.11-19.8 266.11-20.53Q266.11-21.68 266.41-22.19 266.72-22.71 267.4-22.71L267.4-22.71 268.09-22.71 268.65-26.83Q268.84-28.2 270.99-28.2L270.99-28.2 272.36-28.2Q273.48-28.2 274.01-27.86 274.53-27.51 274.53-26.83L274.53-26.83 274.53-22.71 276.65-22.71Q277.34-22.71 277.64-22.19 277.95-21.68 277.95-20.53L277.95-20.53 277.95-19.8Q277.95-18.65 277.64-18.14 277.34-17.63 276.65-17.63L276.65-17.63 274.53-17.63 274.53-6.62Q274.53-5.62 274.88-5.18 275.24-4.74 276.07-4.74L276.07-4.74Q276.31-4.74 276.73-4.82 277.14-4.91 277.24-4.91L277.24-4.91Q277.63-4.91 277.94-4.26 278.24-3.61 278.42-2.83 278.61-2.05 278.61-1.78L278.61-1.78Q278.61 0.37 274.43 0.37L274.43 0.37ZM287.86 0.37Q284.54 0.37 282.99-1.38 281.44-3.13 281.44-6.01L281.44-6.01Q281.44-8.18 282.34-9.92 283.24-11.67 286-12.87 288.76-14.06 293.89-14.06L293.89-14.06 293.89-15.5Q293.89-16.77 293.08-17.38 292.28-17.99 290.52-17.99L290.52-17.99Q289.05-17.99 288-17.69 286.95-17.38 285.73-16.87L285.73-16.87Q285.1-16.58 284.95-16.58L284.95-16.58Q284.51-16.58 283.99-17.24 283.46-17.9 283.07-18.75 282.68-19.6 282.68-20.04L282.68-20.04Q282.68-20.8 283.77-21.5 284.86-22.19 286.76-22.62 288.66-23.05 290.98-23.05L290.98-23.05Q295.87-23.05 298.09-21.11 300.31-19.17 300.31-15.8L300.31-15.8 300.31-7.67Q300.31-5.64 300.42-4.52 300.53-3.39 300.72-2.29L300.72-2.29Q300.85-1.64 300.85-1.37L300.85-1.37Q300.85-0.88 299.93-0.56 299.02-0.24 297.84-0.1 296.67 0.05 295.96 0.05L295.96 0.05Q295.21 0.05 294.88-0.6 294.55-1.25 294.35-2.37L294.35-2.37Q294.33-2.51 294.3-2.66 294.28-2.81 294.23-2.95L294.23-2.95Q293.99-2.49 293.19-1.71 292.4-0.93 291.03-0.28 289.66 0.37 287.86 0.37L287.86 0.37ZM289.98-4.74Q291.2-4.74 292.28-5.51 293.35-6.27 293.89-7.47L293.89-7.47 293.89-9.86Q287.81-9.86 287.81-6.67L287.81-6.67Q287.81-5.81 288.38-5.27 288.96-4.74 289.98-4.74L289.98-4.74ZM312.34 0.37Q309.24 0.37 307.62-1.38 306-3.13 306-6.69L306-6.69 306-31.32Q306-32.74 308.61-32.74L308.61-32.74 309.83-32.74Q311.17-32.74 311.79-32.39 312.42-32.03 312.42-31.32L312.42-31.32 312.42-6.62Q312.42-5.62 312.78-5.18 313.15-4.74 314-4.74L314-4.74Q314.22-4.74 314.66-4.83L314.66-4.83Q314.78-4.86 314.91-4.88 315.03-4.91 315.17-4.91L315.17-4.91Q315.54-4.91 315.85-4.26 316.15-3.61 316.32-2.82 316.49-2.03 316.49-1.78L316.49-1.78Q316.49 0.37 312.34 0.37L312.34 0.37ZM324.72 0.37Q323.03 0.37 321.37 0 319.71-0.37 318.63-1.05 317.54-1.73 317.54-2.61L317.54-2.61Q317.54-3.15 317.93-3.96 318.32-4.76 318.87-5.36 319.42-5.96 319.84-5.96L319.84-5.96Q320.06-5.96 320.79-5.62L320.79-5.62Q321.64-5.22 322.42-4.98 323.2-4.74 324.21-4.74L324.21-4.74Q325.45-4.74 326.09-5.2 326.72-5.66 326.72-6.57L326.72-6.57Q326.72-7.25 326.34-7.7 325.96-8.15 325.38-8.45 324.79-8.74 323.72-9.16L323.72-9.16 323.01-9.42Q321.62-9.96 320.57-10.64 319.52-11.33 318.79-12.63 318.05-13.94 318.05-15.94L318.05-15.94Q318.05-18.16 319.02-19.76 319.98-21.36 321.76-22.2 323.55-23.05 325.96-23.05L325.96-23.05Q327.36-23.05 328.87-22.78 330.38-22.51 331.42-21.95 332.46-21.39 332.46-20.53L332.46-20.53Q332.46-20.04 332.15-19.21 331.85-18.38 331.41-17.75 330.97-17.11 330.58-17.11L330.58-17.11Q330.46-17.11 329.89-17.33L329.89-17.33Q329.14-17.65 328.44-17.83 327.75-18.02 326.84-18.02L326.84-18.02Q324.55-18.02 324.55-16.5L324.55-16.5Q324.55-15.82 324.97-15.33 325.4-14.84 326.04-14.53 326.67-14.21 327.82-13.77L327.82-13.77Q329.14-13.23 329.45-13.09L329.45-13.09Q331.16-12.23 332.2-10.83 333.24-9.42 333.24-7.08L333.24-7.08Q333.24-4.86 332.24-3.17 331.24-1.49 329.31-0.56 327.38 0.37 324.72 0.37L324.72 0.37Z" opacity="1" transform="matrix(1,0,0,1,0,0)" fill="#ff0000" class="wordmark-text-0" data-fill-palette-color="primary" id="text-0"></path></svg></g></svg></g><g transform="matrix(1,0,0,1,109.85454528297663,49.00492378985216)"><svg viewBox="0 0 175.81090943404672 24.500955363690128" height="24.500955363690128" width="175.81090943404672"><g transform="matrix(1,0,0,1,0,0)"><svg width="175.81090943404672" viewBox="2.5 -36 265.4800109863281 37" height="24.500955363690128" data-palette-color="#ca3433"><path d="M23.5-2.75L23.5-2.75Q26.9-2.75 30.03-3.93 33.15-5.1 36-7.75L36-7.75 38.5-4.75Q35.65-2.1 31.6-0.55 27.55 1 23 1L23 1Q18.3 1 14.53-0.2 10.75-1.4 8.08-3.75 5.4-6.1 3.95-9.55 2.5-13 2.5-17.5L2.5-17.5Q2.5-22 3.93-25.45 5.35-28.9 7.98-31.25 10.6-33.6 14.3-34.8 18-36 22.5-36L22.5-36Q27.05-36 31.1-34.45 35.15-32.9 38-30.25L38-30.25 35.5-27.25Q32.65-29.9 29.53-31.08 26.4-32.25 23-32.25L23-32.25Q20.3-32.25 17.95-31.38 15.6-30.5 13.9-28.7 12.2-26.9 11.23-24.13 10.25-21.35 10.25-17.5L10.25-17.5Q10.25-13.65 11.23-10.88 12.2-8.1 13.98-6.3 15.75-4.5 18.18-3.63 20.6-2.75 23.5-2.75ZM47.75-8.25L47.75-8.25Q47.75-3.5 53.5-3.5L53.5-3.5 60.5-3.5 60.5-13 53.5-13Q47.75-13 47.75-8.25ZM53.5-16.5L60.5-16.5Q60.5-20.1 58.62-21.8 56.75-23.5 53.75-23.5L53.75-23.5Q51.5-23.5 49.35-22.83 47.2-22.15 45.5-21L45.5-21 43.75-24Q44.85-24.75 46.17-25.3 47.5-25.85 48.9-26.23 50.3-26.6 51.67-26.8 53.05-27 54.25-27L54.25-27Q57.45-27 59.9-26.25 62.35-25.5 64.05-24.1 65.75-22.7 66.62-20.78 67.5-18.85 67.5-16.5L67.5-16.5 67.5 0 53.5 0Q46.7 0 43.47-2.05 40.25-4.1 40.25-8.25L40.25-8.25Q40.25-12.4 43.47-14.45 46.7-16.5 53.5-16.5L53.5-16.5ZM94-26L94-22.5 88-22.5Q84.59-22.5 82.8-20.68 81-18.85 81-15.25L81-15.25 81 0 74 0 74-15.25Q74-20.35 77.22-23.18 80.45-26 86.5-26L86.5-26 94-26ZM135.24-26L135.24-22.5 129.24-22.5Q125.84-22.5 124.04-20.68 122.24-18.85 122.24-15.25L122.24-15.25 122.24 0 115.24 0 115.24-15.25Q115.24-20.35 118.47-23.18 121.69-26 127.74-26L127.74-26 135.24-26ZM152.74-2.5L152.74-2.5Q155.19-2.5 157.31-3.35 159.44-4.2 161.49-5.75L161.49-5.75 163.49-2.75Q162.54-1.9 161.26-1.2 159.99-0.5 158.51-0.03 157.04 0.45 155.44 0.73 153.84 1 152.24 1L152.24 1Q148.69 1 145.76 0.08 142.84-0.85 140.79-2.63 138.74-4.4 137.61-7 136.49-9.6 136.49-13L136.49-13Q136.49-16.35 137.56-18.98 138.64-21.6 140.56-23.38 142.49-25.15 145.14-26.08 147.79-27 150.99-27L150.99-27Q153.99-27 156.64-26.1 159.29-25.2 161.24-23.48 163.19-21.75 164.34-19.3 165.49-16.85 165.49-13.75L165.49-13.75 165.49-10.25 144.14-10.25Q144.74-6.1 147.01-4.3 149.29-2.5 152.74-2.5ZM150.99-23.75L150.99-23.75Q149.54-23.75 148.29-23.2 147.04-22.65 146.11-21.45 145.19-20.25 144.61-18.35 144.04-16.45 143.99-13.75L143.99-13.75 157.99-13.75Q157.99-16.35 157.39-18.25 156.79-20.15 155.81-21.38 154.84-22.6 153.56-23.18 152.29-23.75 150.99-23.75ZM198.74-15.75L198.74 0 191.74 0 191.74-15.75Q191.74-19.35 189.94-20.93 188.14-22.5 184.74-22.5L184.74-22.5 178.24-22.5 178.24 0 171.24 0 171.24-26 184.74-26Q191.89-26 195.31-23.43 198.74-20.85 198.74-15.75L198.74-15.75ZM206.73-9.5L206.73-22.5 201.98-22.5 201.98-26 206.73-26 206.73-34 213.73-34 213.73-26 221.48-26 221.48-22.5 213.73-22.5 213.73-9.5Q213.73-7.6 214.16-6.28 214.58-4.95 215.31-4.13 216.03-3.3 216.98-2.9 217.93-2.5 218.98-2.5L218.98-2.5Q220.48-2.5 221.88-2.98 223.28-3.45 224.23-4L224.23-4 225.73-0.75Q224.23 0 222.31 0.5 220.38 1 218.48 1L218.48 1Q212.83 1 209.78-1.8 206.73-4.6 206.73-9.5L206.73-9.5ZM234.48-8.25L234.48-8.25Q234.48-3.5 240.23-3.5L240.23-3.5 247.23-3.5 247.23-13 240.23-13Q234.48-13 234.48-8.25ZM240.23-16.5L247.23-16.5Q247.23-20.1 245.36-21.8 243.48-23.5 240.48-23.5L240.48-23.5Q238.23-23.5 236.08-22.83 233.93-22.15 232.23-21L232.23-21 230.48-24Q231.58-24.75 232.91-25.3 234.23-25.85 235.63-26.23 237.03-26.6 238.41-26.8 239.78-27 240.98-27L240.98-27Q244.18-27 246.63-26.25 249.08-25.5 250.78-24.1 252.48-22.7 253.36-20.78 254.23-18.85 254.23-16.5L254.23-16.5 254.23 0 240.23 0Q233.43 0 230.21-2.05 226.98-4.1 226.98-8.25L226.98-8.25Q226.98-12.4 230.21-14.45 233.43-16.5 240.23-16.5L240.23-16.5ZM267.98-35L267.98 0 260.98 0 260.98-35 267.98-35Z" opacity="1" transform="matrix(1,0,0,1,0,0)" fill="#ca3433" class="slogan-text-1" data-fill-palette-color="secondary" id="text-1"></path></svg></g></svg></g></svg></g></svg></g><g transform="matrix(1,0,0,1,146.96743750490228,0)"><svg viewBox="0 0 101.58512499019542 101.58512499019542" height="101.58512499019542" width="101.58512499019542"><g><svg></svg></g><g id="icon-0"><svg viewBox="0 0 101.58512499019542 101.58512499019542" height="101.58512499019542" width="101.58512499019542"><g><path xmlns="http://www.w3.org/2000/svg" d="M30.476 101.585c-16.831 0-30.476-13.644-30.476-30.475v-40.634c0-16.831 13.644-30.476 30.476-30.476h40.634c16.831 0 30.476 13.644 30.475 30.476v40.634c0 16.831-13.644 30.476-30.475 30.475z" fill="#ed2647" fill-rule="nonzero" stroke="none" stroke-width="1" stroke-linecap="butt" stroke-linejoin="miter" stroke-miterlimit="10" stroke-dasharray="" stroke-dashoffset="0" font-family="none" font-weight="none" font-size="none" text-anchor="none" style="mix-blend-mode: normal" data-fill-palette-color="accent"></path></g><g transform="matrix(1,0,0,1,20.31702499803908,21.26938789111328)"><svg viewBox="0 0 60.95107499411726 59.046349207968866" height="59.046349207968866" width="60.95107499411726"><g><svg xmlns="http://www.w3.org/2000/svg" xmlns:xlink="http://www.w3.org/1999/xlink" version="1.1" x="0" y="0" viewBox="0 0.8000001907348633 48.000003814697266 46.5" style="enable-background:new 0 0 48 48;" xml:space="preserve" width="60.95107499411726" height="59.046349207968866" class="icon-s-0" data-fill-palette-color="quaternary" id="s-0"><g fill="#ffffff" data-fill-palette-color="quaternary"><path d="M44.3 26c-0.6-8.2-8.1-14.8-17.4-14.8-9.3 0-16.9 6.6-17.4 14.9C4.2 26.8 0 31.4 0 37v2.7c0 0.6 0.4 1 1 1h3.1c0.4 3.7 3.6 6.6 7.4 6.6s7-2.9 7.4-6.6h8.2c0.4 3.7 3.6 6.6 7.4 6.6s7-2.9 7.4-6.6h2.2c2.1 0 3.9-1.7 3.9-3.9v-6.9C48 27.8 46.4 26.1 44.3 26zM27.9 13.3c7.7 0.4 13.9 5.9 14.4 12.7H27.9V13.3zM25.9 13.3V26H11.5C12.1 19.2 18.2 13.8 25.9 13.3zM11.5 45.2c-3 0-5.5-2.4-5.5-5.5 0 0 0-0.1 0-0.1 0 0 0 0 0 0 0 0 0 0 0 0 0.1-2.9 2.5-5.3 5.4-5.3 3 0 5.5 2.4 5.5 5.5C17 42.8 14.6 45.2 11.5 45.2zM34.5 45.2c-3 0-5.5-2.4-5.5-5.5 0-3 2.4-5.5 5.5-5.5 3 0 5.5 2.4 5.5 5.5C40 42.8 37.5 45.2 34.5 45.2zM46 36.8c0 1-0.8 1.9-1.9 1.9h-2.2c-0.5-3.6-3.6-6.3-7.4-6.3s-6.8 2.7-7.4 6.3h-8.3c-0.5-3.6-3.6-6.3-7.4-6.3s-6.8 2.7-7.4 6.3H2V37c0-4.9 4-9 9-9 18.7 0 14.4 0 33.1 0 1 0 1.9 0.8 1.9 1.9V36.8z" fill="#ffffff" data-fill-palette-color="quaternary"></path><path d="M17.6 6.9h15c0.5 2.3 2.5 4.1 5 4.1 2.8 0 5.1-2.3 5.1-5.1s-2.3-5.1-5.1-5.1c-2.5 0-4.6 1.8-5 4.1h-7.1V2c0-0.6-0.4-1-1-1s-1 0.4-1 1v2.8h-0.7V3c0-0.6-0.4-1-1-1s-1 0.4-1 1v1.9h-0.5V2c0-0.6-0.4-1-1-1s-1 0.4-1 1v2.8h-0.7c-0.6 0-1 0.4-1 1S17 6.9 17.6 6.9zM34.4 5.9c0-1.7 1.4-3.1 3.1-3.1 1.7 0 3.1 1.4 3.1 3.1S39.3 9 37.5 9C35.8 9 34.4 7.6 34.4 5.9 34.4 5.9 34.4 5.9 34.4 5.9 34.4 5.9 34.4 5.9 34.4 5.9z" fill="#ffffff" data-fill-palette-color="quaternary"></path></g></svg></g></svg></g></svg></g></svg></g><g></g></svg></g><defs></defs></svg><rect width="395.52" height="184.45036909266733" fill="none" stroke="none" visibility="hidden"></rect></g></svg></g></svg>